# xmcd
#
# Track frame offsets:
#	150
#	17157
#	38860
#	58395
#	78175
#	97545
#	119002
#	137605
#	159010
#	174735
#
# Disc length: 2484 seconds
#
# Revision: 0
# Processed by: cddbd v1.4PL0 Copyright (c) Steve Scherf et al.
# Submitted via: EasyCDDAExtractor 4.6.9.1
#
DISCID=7609b20a
DTITLE=D.K. Stewart and the Stainless Steel Band - Don't Call Home
DYEAR=1995
DGENRE=Blues
TTITLE0=Don't Call Home
TTITLE1=Monday Night at da Candlelight
TTITLE2=Everything's Alright
TTITLE3=Set Her Free
TTITLE4=Round 2
TTITLE5=I Gotta Feelin'
TTITLE6=Midnight Angel
TTITLE7=Driftin' n' Love
TTITLE8=Sweet Baby Boy
TTITLE9=Oh baby oh
EXTD=
EXTT0=
EXTT1=
EXTT2=
EXTT3=
EXTT4=
EXTT5=
EXTT6=
EXTT7=
EXTT8=
EXTT9=
PLAYORDER=
